<?xml version="1.0" encoding="UTF-8"?>
<svg xmlns="http://www.w3.org/2000/svg" xmlns:xlink="http://www.w3.org/1999/xlink" viewBox="0 0 100 100" width="100px" height="100px">
<g id="surface8434927">
<path style=" stroke:none;fill-rule:nonzero;fill:rgb(63.921571%,63.921571%,63.921571%);fill-opacity:1;" d="M 58 6 C 53.789062 6 48.867188 9.304688 48.125 24.0625 C 48.75 24.046875 49.367188 24 50 24 C 50.703125 24 51.429688 24.039062 52.125 24.0625 C 52.601562 15.195312 54.710938 10 58 10 C 59.40625 10 60.203125 10.765625 61.6875 12.375 C 63.421875 14.257812 65.6875 16.703125 70.125 17.625 C 70.054688 17.101562 70 16.539062 70 16 C 70 15.15625 70.085938 14.359375 70.25 13.5625 C 67.5 12.8125 66.046875 11.226562 64.625 9.6875 C 63.039062 7.96875 61.21875 6 58 6 Z M 82 8 C 77.585938 8 74 11.59375 74 16 C 74 20.40625 77.585938 24 82 24 C 86.414062 24 90 20.40625 90 16 C 90 11.59375 86.414062 8 82 8 Z M 50 28 C 25.734375 28 6 40.359375 6 58 C 6 75.640625 25.734375 90 50 90 C 74.265625 90 94 75.640625 94 58 C 94 40.359375 74.265625 28 50 28 Z M 15 29.875 C 12.078125 29.875 9.304688 31.070312 7.1875 33.1875 C 3.742188 36.632812 3.03125 41.585938 5 45.6875 C 8.023438 39.835938 13.226562 34.84375 19.9375 31.125 C 18.414062 30.351562 16.726562 29.875 15 29.875 Z M 85 29.875 C 83.273438 29.875 81.585938 30.351562 80.0625 31.125 C 86.773438 34.84375 91.976562 39.835938 95 45.6875 C 96.96875 41.585938 96.257812 36.632812 92.8125 33.1875 C 90.695312 31.070312 87.921875 29.875 85 29.875 Z M 34 46 C 37.3125 46 40 48.6875 40 52 C 40 55.3125 37.3125 58 34 58 C 30.6875 58 28 55.3125 28 52 C 28 48.6875 30.6875 46 34 46 Z M 66 46 C 69.3125 46 72 48.6875 72 52 C 72 55.3125 69.3125 58 66 58 C 62.6875 58 60 55.3125 60 52 C 60 48.6875 62.6875 46 66 46 Z M 32.125 68 C 32.625 68.085938 33.117188 68.367188 33.4375 68.8125 C 33.648438 69.109375 38.335938 75.375 50 75.375 C 61.820312 75.375 66.515625 68.9375 66.5625 68.875 C 67.195312 67.976562 68.46875 67.734375 69.375 68.375 C 70.273438 69.007812 70.445312 70.21875 69.8125 71.125 C 69.578125 71.460938 63.875 79.375 50 79.375 C 36.117188 79.375 30.421875 71.460938 30.1875 71.125 C 29.554688 70.21875 29.71875 69.007812 30.625 68.375 C 31.078125 68.054688 31.625 67.914062 32.125 68 Z M 32.125 68 "/>
</g>
</svg>
