<?xml version="1.0" encoding="UTF-8"?>
<svg xmlns="http://www.w3.org/2000/svg" xmlns:xlink="http://www.w3.org/1999/xlink" viewBox="0 0 100 100" width="100px" height="100px">
<g id="surface6620501">
<path style=" stroke:none;fill-rule:nonzero;fill:rgb(100%,100%,100%);fill-opacity:1;" d="M 42 6 C 23.203125 6 8 21.203125 8 40 C 8 58.796875 23.203125 74 42 74 C 48.710938 74 54.921875 72.03125 60.1875 68.6875 L 84.75 93.25 L 93.25 84.75 L 69 60.5625 C 73.359375 54.84375 76 47.757812 76 40 C 76 21.203125 60.796875 6 42 6 Z M 42 14 C 56.398438 14 68 25.601562 68 40 C 68 54.398438 56.398438 66 42 66 C 27.601562 66 16 54.398438 16 40 C 16 25.601562 27.601562 14 42 14 Z M 42 14 "/>
</g>
</svg>
