<?xml version="1.0" encoding="UTF-8"?>
<svg xmlns="http://www.w3.org/2000/svg" xmlns:xlink="http://www.w3.org/1999/xlink" viewBox="0 0 100 100" width="100px" height="100px">
<g id="surface6858037">
<path style="fill-rule:nonzero;fill:rgb(0%,0%,0%);fill-opacity:1;stroke-width:10;stroke-linecap:butt;stroke-linejoin:round;stroke:rgb(100%,100%,100%);stroke-opacity:1;stroke-miterlimit:10;" d="M 130.72057 68.801422 C 130.72057 83.32672 125.423777 96.614915 116.636079 106.85301 L 161.356648 151.680226 L 151.680226 161.356648 L 106.426423 116.209492 C 96.806879 123.169974 85.00463 127.279432 72.24256 127.279432 C 39.97834 127.279432 13.757441 101.065642 13.757441 68.801422 C 13.757441 36.537203 39.97834 10.323413 72.24256 10.323413 C 104.50678 10.323413 130.72057 36.537203 130.72057 68.801422 Z M 20.639716 68.801422 C 20.639716 97.340113 43.69676 120.397157 72.24256 120.397157 C 100.781251 120.397157 123.838295 97.340113 123.838295 68.801422 C 123.838295 40.255622 100.781251 17.198578 72.24256 17.198578 C 43.69676 17.198578 20.639716 40.255622 20.639716 68.801422 Z M 20.639716 68.801422 " transform="matrix(0.549419,0,0,0.549419,2.75,2.75)"/>
<path style=" stroke:none;fill-rule:nonzero;fill:rgb(100%,100%,100%);fill-opacity:1;" d="M 42.441406 8.421875 C 24.714844 8.421875 10.308594 22.824219 10.308594 40.550781 C 10.308594 58.277344 24.714844 72.679688 42.441406 72.679688 C 49.453125 72.679688 55.9375 70.421875 61.222656 66.597656 L 86.085938 91.402344 L 91.402344 86.085938 L 66.832031 61.457031 C 71.660156 55.832031 74.570312 48.53125 74.570312 40.550781 C 74.570312 22.824219 60.167969 8.421875 42.441406 8.421875 Z M 42.441406 12.199219 C 58.121094 12.199219 70.789062 24.867188 70.789062 40.550781 C 70.789062 56.230469 58.121094 68.898438 42.441406 68.898438 C 26.757812 68.898438 14.089844 56.230469 14.089844 40.550781 C 14.089844 24.867188 26.757812 12.199219 42.441406 12.199219 Z M 42.441406 12.199219 "/>
</g>
</svg>
